<svg xmlns="http://www.w3.org/2000/svg" viewBox="0 0 640 640" role="img" aria-label="Shiv Sena (UBT) flaming torch symbol">
  <circle cx="320" cy="320" r="300" fill="none" stroke="#2f2f2f" stroke-width="16"/>
  <g fill="#2f2f2f">
    <path d="M316 470c-10 0-18-8-18-18V320c0-10 8-18 18-18s18 8 18 18v132c0 10-8 18-18 18z"/>
    <path d="M300 303c-18-31-24-61-16-90 6-25 21-49 44-70 7 29 24 49 41 69 22 25 44 50 42 89-2 18-9 35-23 50 1-14-3-28-10-40-6-11-15-21-28-32-7 21-22 37-50 57z"/>
    <path d="M334 253c8-15 11-28 10-42-1-15-7-30-18-45-6 11-12 21-17 32-7 13-10 25-10 38 0 15 6 28 19 40 6-10 10-16 16-23z"/>
    <path d="M282 326c-28-28-40-55-36-82 3-20 15-39 36-58 4 19 14 34 25 48 13 16 28 31 27 57 0 12-5 24-14 35-6-8-14-13-23-18-5 7-10 13-15 18z"/>
  </g>
</svg>
